P2
88 80
4095
1512
1516
1672
1812
1891
1919
1975
2000
2059
2072
2108
2011
2076
2124
2091
2195
2156
2163
2248
2200
2212
2312
2288
2400
2395
2259
2347
2355
2384
2396
2440
2367
2292
2376
2439
2355
2412
2412
2384
2448
2407
2395
2435
2416
2455
2436
2464
2435
2447
2444
2436
2351
2440
2471
2479
2496
2476
2403
2368
2428
2307
2231
1971
1975
0
0
0
0
0
0
0
0
0
0
0
0
0
0
0
0
0
0
0
0
0
0
0
0
1855
1859
2031
2231
2255
2295
2307
2312
2352
2408
2399
2419
2411
2460
2440
2527
2519
2475
2592
2580
2623
2664
2628
2676
2739
2656
2703
2668
2715
2712
2747
2732
2684
2704
2728
2699
2728
2760
2703
2704
2747
2735
2708
2711
2739
2764
2727
2779
2780
2791
2763
2715
2695
2784
2776
2832
2791
2712
2667
2731
2639
2548
2343
2347
0
0
0
0
0
0
0
0
0
0
0
0
0
0
0
0
0
0
0
0
0
0
0
0
1968
1972
2236
2356
2440
2500
2548
2564
2604
2616
2648
2571
2591
2651
2644
2751
2711
2700
2800
2791
2779
2868
2836
2927
2872
2816
2871
2919
2896
2911
2979
2964
2888
2980
2960
2876
2940
2972
2891
2968
2956
2931
2968
2944
2964
3012
2936
2967
2948
2967
2988
2936
2967
2987
2992
3039
3000
2971
2907
2975
2819
2735
2556
2560
0
0
0
0
0
0
0
0
0
0
0
0
0
0
0
0
0
0
0
0
0
0
0
0
1928
1936
2300
2444
2491
2603
2624
2576
2639
2699
2668
2719
2707
2719
2748
2856
2847
2787
2900
2887
2871
2956
2948
2944
2972
2975
3060
2979
3015
3011
3015
3016
3008
3047
3068
2983
3031
3048
2967
3047
3023
3000
3015
3039
3035
3051
3003
3036
3076
3071
3071
3060
3108
3076
3047
3123
3136
3023
3011
3068
2956
2848
2556
2563
0
0
0
0
0
0
0
0
0
0
0
0
0
0
0
0
0
0
0
0
0
0
0
0
1903
1908
2232
2472
2492
2492
2607
2568
2679
2599
2655
2668
2635
2728
2699
2743
2852
2800
2884
2879
2904
2876
2888
2939
2891
2912
2883
2992
2939
2976
2884
3000
2972
3071
3019
3007
3084
3048
3008
3004
3084
3000
3023
3003
3031
2980
2992
3043
3108
3071
3048
3079
3068
3040
3059
3075
3052
3083
3076
3012
2955
2755
2595
2595
0
0
0
0
0
0
0
0
0
0
0
0
0
0
0
0
0
0
0
0
0
0
0
0
1979
1987
2308
2487
2483
2516
2571
2559
2679
2619
2599
2636
2651
2783
2740
2732
2784
2800
2787
2860
2812
2884
2872
2884
2836
2848
2872
2968
2947
2915
2879
2975
2963
2980
3047
2940
3056
3011
3004
2988
3016
2972
3004
2999
2991
2983
2963
2999
3036
3023
3024
3076
3111
3040
3004
3027
3043
2999
3027
2920
2875
2783
2551
2555
0
0
0
0
0
0
0
0
0
0
0
0
0
0
0
0
0
0
0
0
0
0
0
0
1980
1988
2343
2460
2495
2539
2540
2644
2660
2679
2723
2660
2687
2800
2727
2743
2820
2812
2859
2868
2883
2867
2864
2911
2948
2916
2879
2939
2911
2975
2987
3020
2875
3035
3055
2988
3108
3020
3056
3039
3071
3011
3003
3060
3044
3020
3067
3084
3072
3076
3048
3075
3096
3075
3040
3027
3087
3048
3051
2984
2940
2779
2603
2608
0
0
0
0
0
0
0
0
0
0
0
0
0
0
0
0
0
0
0
0
0
0
0
0
1980
1988
2228
2452
2475
2503
2584
2607
2655
2604
2712
2656
2652
2780
2731
2748
2724
2775
2803
2812
2811
2888
2871
2900
2895
2899
2888
2960
2911
2972
2928
3036
2896
2991
3016
3019
3064
2975
2972
2996
3012
2996
3004
3024
3071
2952
3012
3031
3048
3076
3007
3031
3100
2992
3047
3003
3079
3012
3039
2988
2919
2775
2539
2544
0
0
0
0
0
0
0
0
0
0
0
0
0
0
0
0
0
0
0
0
0
0
0
0
2000
2007
2228
2435
2479
2540
2516
2628
2599
2612
2675
2663
2688
2712
2691
2743
2780
2747
2808
2807
2840
2847
2848
2887
2868
2915
3024
2888
2927
2908
2944
2975
2928
2927
2935
2971
2984
2920
2908
3011
2892
2975
3023
2967
3031
2995
3044
3087
2991
3044
2932
3019
2999
2991
2964
2952
3036
2972
2956
2983
2852
2799
2543
2551
0
0
0
0
0
0
0
0
0
0
0
0
0
0
0
0
0
0
0
0
0
0
0
0
1948
1955
2228
2391
2428
2532
2519
2600
2636
2624
2655
2688
2652
2719
2696
2719
2739
2715
2791
2719
2839
2852
2831
2844
2907
2856
2955
2864
2860
2867
2955
2892
2864
2896
2932
2860
2935
2883
2887
2935
2928
2940
2960
2960
3035
2951
2980
3064
2992
3032
2883
2935
3012
2932
2943
2868
2971
2952
2864
2891
2839
2687
2544
2548
0
0
0
0
0
0
0
0
0
0
0
0
0
0
0
0
0
0
0
0
0
0
0
0
1991
1996
2232
2428
2472
2543
2540
2604
2612
2619
2667
2719
2688
2719
2651
2736
2744
2772
2816
2756
2832
2832
2827
2935
2907
2884
2983
2943
2884
2892
2924
2988
2887
2883
2968
2971
2988
2972
2972
2980
2968
2964
3060
2972
3047
2995
2992
3043
3044
3084
2944
2948
3020
2972
2948
2935
2959
2956
2915
2940
2847
2732
2595
2596
0
0
0
0
0
0
0
0
0
0
0
0
0
0
0
0
0
0
0
0
0
0
0
0
1991
1996
2280
2400
2455
2488
2544
2556
2632
2619
2627
2640
2620
2719
2676
2708
2787
2764
2755
2820
2791
2855
2847
2867
2879
2864
2967
2895
2844
2888
2920
2959
2924
2931
2984
2916
3000
2975
2928
3000
2920
2963
2963
2988
3012
2940
2987
3039
2964
3007
2947
2976
2980
2991
2944
2879
2972
2932
2836
2932
2827
2731
2528
2535
0
0
0
0
0
0
0
0
0
0
0
0
0
0
0
0
0
0
0
0
0
0
0
0
1943
1944
2228
2371
2392
2467
2567
2524
2564
2524
2584
2608
2540
2687
2700
2651
2696
2768
2795
2724
2800
2776
2787
2840
2859
2859
2892
2908
2871
2916
2859
2992
2979
2979
2956
3011
2952
2927
2959
2967
2992
3032
3031
3011
2999
2911
3016
3031
2960
2999
3003
3016
2964
2944
2899
3000
3028
3019
2980
2919
2788
2647
2479
2480
0
0
0
0
0
0
0
0
0
0
0
0
0
0
0
0
0
0
0
0
0
0
0
0
2011
2011
2248
2387
2488
2500
2535
2540
2631
2556
2564
2648
2575
2672
2696
2699
2715
2788
2740
2692
2832
2783
2839
2868
2884
2876
2867
2840
2899
2928
2931
2992
2896
2943
2952
3007
2984
3011
2971
2951
2980
2983
2980
2944
2988
2891
2968
2980
2904
2975
2975
2979
2931
2967
2911
2951
2908
3012
2940
2896
2803
2676
2472
2476
0
0
0
0
0
0
0
0
0
0
0
0
0
0
0
0
0
0
0
0
0
0
0
0
1980
1984
2227
2456
2431
2540
2588
2540
2647
2651
2675
2664
2615
2707
2707
2724
2759
2755
2812
2776
2847
2815
2855
2847
2911
2952
2947
2951
2911
2952
2916
2996
2944
2980
3019
2988
2980
3004
3016
3043
3039
2992
3016
2984
3031
2952
3032
3003
2996
3055
3032
3008
2988
3031
2920
2987
2952
3031
2996
2984
2872
2704
2504
2511
0
0
0
0
0
0
0
0
0
0
0
0
0
0
0
0
0
0
0
0
0
0
0
0
1972
1975
2215
2412
2416
2483
2504
2515
2531
2583
2604
2663
2599
2688
2623
2711
2724
2760
2791
2751
2768
2768
2808
2800
2871
2916
2903
2872
2951
2936
2880
3003
2908
2956
3024
2975
2952
2936
3007
2975
2979
3000
2983
2935
2944
2959
2960
3031
2983
3004
2979
2960
2975
3000
2927
2984
2983
3028
2995
2940
2827
2699
2464
2472
0
0
0
0
0
0
0
0
0
0
0
0
0
0
0
0
0
0
0
0
0
0
0
0
1883
1887
2191
2384
2360
2503
2483
2495
2555
2647
2600
2628
2615
2616
2568
2639
2664
2712
2715
2704
2691
2748
2756
2791
2884
2856
2943
2808
2884
2872
2848
2915
2847
2892
2836
2995
2963
2923
2903
2995
2959
2935
2924
2964
2972
2931
2948
2919
2983
2971
2948
2967
2927
2923
2991
2904
2888
2912
2840
2868
2824
2748
2427
2431
0
0
0
0
0
0
0
0
0
0
0
0
0
0
0
0
0
0
0
0
0
0
0
0
1868
1876
2236
2364
2411
2587
2480
2495
2519
2599
2627
2607
2648
2656
2575
2644
2676
2700
2735
2739
2787
2812
2843
2788
2804
2855
2888
2815
2879
2860
2815
2891
2836
2903
2864
3007
2904
2892
2871
2919
2908
2932
2999
2884
2935
2908
2912
2904
2951
2967
2892
2927
2880
2907
2951
2904
2911
2956
2855
2879
2760
2703
2499
2500
0
0
0
0
0
0
0
0
0
0
0
0
0
0
0
0
0
0
0
0
0
0
0
0
1932
1939
2268
2392
2436
2596
2551
2495
2555
2628
2675
2616
2616
2708
2680
2671
2744
2719
2792
2756
2779
2811
2756
2839
2867
2867
2875
2855
2928
2928
2899
2919
2848
2900
2884
3004
2964
2939
2935
2967
2908
2919
3023
2975
2992
2932
2988
2996
2999
3000
2999
3052
2968
2948
3036
2927
2932
2959
2904
2944
2843
2704
2544
2547
0
0
0
0
0
0
0
0
0
0
0
0
0
0
0
0
0
0
0
0
0
0
0
0
1847
1851
2280
2375
2467
2539
2511
2472
2507
2611
2651
2612
2583
2640
2640
2659
2715
2680
2748
2660
2692
2768
2808
2788
2800
2839
2896
2852
2851
2875
2848
2884
2856
2900
2855
2943
2911
2864
2864
2932
2864
2911
2952
2936
2935
2920
2967
2867
2936
2976
2836
2991
3027
2916
3004
2867
2936
2920
2896
2879
2788
2711
2452
2456
0
0
0
0
0
0
0
0
0
0
0
0
0
0
0
0
0
0
0
0
0
0
0
0
1911
1916
2184
2371
2340
2423
2527
2516
2524
2512
2544
2623
2620
2636
2632
2728
2604
2640
2716
2687
2807
2796
2720
2787
2831
2824
2903
2804
2836
2920
2899
2827
2828
2855
2911
2911
2951
2979
2936
2896
2879
3043
2928
3012
2987
2960
2980
2971
2844
3012
2940
2955
2987
2944
2940
2964
2883
2916
2931
2847
2828
2720
2511
2516
0
0
0
0
0
0
0
0
0
0
0
0
0
0
0
0
0
0
0
0
0
0
0
0
1936
1943
2224
2379
2396
2408
2551
2523
2556
2583
2584
2608
2647
2628
2640
2676
2663
2639
2728
2727
2760
2795
2763
2776
2884
2831
2836
2892
2904
2876
2884
2899
2815
2867
2911
2959
2856
2955
2940
2871
2860
2975
2860
3023
2875
2939
2956
2956
2855
2984
2908
2928
2999
2935
2927
2907
2887
2979
2931
2840
2796
2728
2547
2551
0
0
0
0
0
0
0
0
0
0
0
0
0
0
0
0
0
0
0
0
0
0
0
0
1987
1992
2212
2444
2356
2463
2583
2524
2591
2556
2580
2612
2667
2700
2660
2699
2748
2655
2739
2779
2816
2808
2783
2831
2867
2859
2943
2860
2811
2892
2944
2952
2899
2876
2951
2964
2940
2995
2892
2904
2899
2944
2959
2979
2931
2951
2988
2992
2923
2999
2928
2956
3060
2975
2963
2959
2931
2932
2955
2840
2871
2716
2559
2560
0
0
0
0
0
0
0
0
0
0
0
0
0
0
0
0
0
0
0
0
0
0
0
0
1964
1971
2223
2372
2420
2420
2539
2503
2523
2535
2564
2599
2651
2675
2632
2631
2755
2656
2748
2756
2844
2799
2792
2836
2828
2803
2891
2872
2907
2899
2895
2916
2879
2875
2923
2931
2943
2920
2884
2924
2900
2975
2919
2935
2920
2936
2964
2976
2911
2972
2968
2960
2999
2924
2956
3020
2916
2960
2883
2888
2815
2695
2460
2464
0
0
0
0
0
0
0
0
0
0
0
0
0
0
0
0
0
0
0
0
0
0
0
0
1940
1944
2176
2295
2315
2427
2332
2475
2431
2463
2539
2575
2540
2619
2568
2599
2728
2655
2667
2691
2728
2776
2727
2828
2815
2804
2800
2792
2787
2819
2884
2896
2911
2916
2852
2828
2875
2884
2892
2827
2868
2867
2887
2827
2855
2911
2927
2856
2903
2940
2908
2928
2952
2932
2856
2911
2879
2888
2811
2843
2752
2624
2328
2335
0
0
0
0
0
0
0
0
0
0
0
0
0
0
0
0
0
0
0
0
0
0
0
0
1912
1912
2156
2323
2347
2456
2428
2483
2507
2487
2543
2567
2528
2639
2616
2655
2704
2684
2672
2772
2683
2760
2735
2796
2788
2776
2812
2764
2767
2807
2851
2883
2851
2903
2843
2840
2903
2879
2916
2832
2872
2872
2887
2836
2880
2859
2940
2928
2892
2927
2903
2895
2928
2939
2892
2864
2875
2867
2764
2811
2784
2612
2355
2360
0
0
0
0
0
0
0
0
0
0
0
0
0
0
0
0
0
0
0
0
0
0
0
0
1988
1992
2232
2336
2348
2468
2416
2468
2528
2520
2576
2636
2559
2655
2655
2676
2672
2700
2732
2776
2732
2848
2707
2812
2835
2855
2847
2824
2816
2848
2868
2891
2859
2912
2871
2899
2907
2932
2944
2860
2928
2904
2912
2947
2916
2880
2992
2911
2964
2967
2940
2963
3016
2972
2931
2887
2972
2940
2815
2887
2764
2616
2404
2411
0
0
0
0
0
0
0
0
0
0
0
0
0
0
0
0
0
0
0
0
0
0
0
0
1892
1895
2167
2324
2303
2387
2411
2496
2492
2531
2575
2608
2519
2636
2635
2588
2696
2635
2719
2688
2727
2764
2703
2808
2756
2808
2839
2832
2783
2848
2847
2907
2868
2899
2867
2863
2911
2892
2884
2876
2895
2867
2895
2875
2892
2880
3008
2916
2871
2911
2872
2900
2956
2931
2860
2868
2895
2932
2812
2880
2759
2676
2387
2392
0
0
0
0
0
0
0
0
0
0
0
0
0
0
0
0
0
0
0
0
0
0
0
0
1864
1867
2123
2223
2303
2387
2408
2439
2499
2507
2571
2559
2528
2632
2603
2624
2647
2671
2699
2720
2776
2783
2724
2735
2772
2787
2763
2792
2852
2844
2912
2876
2852
2864
2895
2847
2952
2876
2864
2923
2871
2904
2936
2868
2852
2899
2948
2996
2947
2887
2992
2908
2956
2963
2995
2956
2972
2980
2784
2876
2796
2632
2423
2431
0
0
0
0
0
0
0
0
0
0
0
0
0
0
0
0
0
0
0
0
0
0
0
0
1868
1868
2215
2328
2367
2455
2432
2515
2547
2515
2639
2539
2560
2659
2639
2619
2672
2655
2735
2724
2771
2803
2727
2796
2864
2812
2783
2783
2811
2831
2856
2883
2911
2851
2919
2871
2948
2880
2871
2940
2936
2883
2948
2840
2839
2956
2939
2959
2875
2960
2923
2951
2960
2968
2967
2891
2956
2960
2804
2828
2816
2643
2416
2424
0
0
0
0
0
0
0
0
0
0
0
0
0
0
0
0
0
0
0
0
0
0
0
0
1924
1931
2220
2300
2372
2479
2519
2479
2531
2551
2596
2588
2611
2716
2640
2659
2711
2691
2708
2752
2816
2783
2719
2763
2803
2804
2851
2807
2839
2815
2888
2863
2852
2932
2943
2879
2963
2923
2928
3015
2892
2947
2983
2903
2916
2944
2931
2963
2956
2964
2932
2975
3020
2972
2951
2996
3003
3072
2851
2919
2872
2660
2424
2431
0
0
0
0
0
0
0
0
0
0
0
0
0
0
0
0
0
0
0
0
0
0
0
0
1860
1863
2160
2236
2380
2448
2459
2496
2564
2540
2564
2544
2560
2703
2640
2644
2703
2647
2751
2747
2744
2796
2756
2832
2775
2807
2840
2768
2844
2864
2907
2911
2855
2859
2900
2935
2928
2911
2939
2988
2943
2928
2923
2919
2960
3008
2931
2936
2971
2991
2956
2967
2939
2963
2951
2911
2963
3024
2831
2855
2828
2668
2372
2380
0
0
0
0
0
0
0
0
0
0
0
0
0
0
0
0
0
0
0
0
0
0
0
0
1847
1848
2131
2283
2303
2355
2435
2432
2456
2484
2512
2451
2564
2596
2555
2539
2635
2640
2727
2684
2648
2727
2684
2720
2831
2780
2800
2771
2824
2824
2839
2868
2844
2956
2923
2796
2935
2855
2863
2832
2888
2899
2892
2843
2960
2843
2871
2976
2924
2936
2860
2899
2956
2852
2911
2839
2844
2911
2876
2811
2848
2620
2419
2420
0
0
0
0
0
0
0
0
0
0
0
0
0
0
0
0
0
0
0
0
0
0
0
0
1899
1900
2127
2339
2352
2451
2476
2451
2488
2543
2528
2547
2587
2607
2587
2587
2652
2639
2736
2723
2643
2763
2719
2740
2819
2800
2835
2787
2816
2871
2844
2867
2844
2928
2919
2819
2900
2843
2904
2888
2872
2919
2911
2912
2899
2847
2891
2876
2951
2923
2860
2896
2928
2808
2891
2800
2812
2936
2832
2835
2788
2627
2371
2372
0
0
0
0
0
0
0
0
0
0
0
0
0
0
0
0
0
0
0
0
0
0
0
0
1900
1903
2224
2371
2343
2403
2515
2539
2484
2535
2499
2559
2596
2636
2623
2667
2707
2679
2776
2727
2751
2811
2779
2783
2852
2812
2852
2807
2859
2911
2908
2908
2891
2927
2988
2868
2963
2879
2911
2915
2896
2952
2948
2888
2932
2799
2964
2988
2980
2992
2964
2907
2948
2852
2971
2843
2900
2923
2919
2864
2843
2680
2432
2439
0
0
0
0
0
0
0
0
0
0
0
0
0
0
0
0
0
0
0
0
0
0
0
0
1819
1819
2104
2351
2351
2416
2480
2400
2483
2524
2543
2567
2595
2576
2580
2600
2608
2683
2711
2759
2663
2772
2752
2755
2823
2792
2876
2784
2863
2832
2860
2872
2887
2895
2884
2839
2884
2843
2919
2860
2908
2896
2900
2843
2967
2852
2920
2928
2908
2935
2891
2911
2924
2876
2923
2827
2867
2888
2859
2824
2812
2683
2440
2447
0
0
0
0
0
0
0
0
0
0
0
0
0
0
0
0
0
0
0
0
0
0
0
0
1844
1844
2080
2236
2283
2432
2371
2432
2456
2451
2467
2523
2559
2592
2587
2612
2560
2583
2647
2724
2735
2708
2743
2823
2795
2752
2812
2792
2879
2835
2736
2832
2844
2792
2892
2899
2908
2827
2867
2868
2871
2920
2911
2880
2924
2884
2887
2939
2891
2992
2892
2951
2940
2852
2983
2868
2792
2879
2812
2747
2732
2643
2399
2404
0
0
0
0
0
0
0
0
0
0
0
0
0
0
0
0
0
0
0
0
0
0
0
0
1835
1835
2144
2335
2320
2468
2439
2495
2564
2504
2492
2567
2583
2587
2567
2624
2656
2591
2683
2747
2683
2767
2751
2804
2716
2771
2803
2792
2896
2804
2820
2867
2872
2852
2916
2943
2928
2868
2876
2904
2900
2931
2891
2928
2887
2836
2927
2971
2855
2983
2907
2904
2931
2879
2963
2860
2831
2824
2836
2771
2755
2632
2376
2384
0
0
0
0
0
0
0
0
0
0
0
0
0
0
0
0
0
0
0
0
0
0
0
0
1875
1876
2120
2331
2351
2411
2412
2448
2539
2492
2588
2615
2579
2628
2592
2684
2676
2611
2732
2736
2756
2728
2760
2884
2759
2795
2780
2824
2840
2855
2868
2883
2904
2860
2936
2980
2956
2944
2923
2959
2892
2948
2911
2923
2912
2944
2924
2955
2896
3031
2972
2939
2967
2864
3016
2896
2824
2888
2860
2800
2799
2615
2383
2392
0
0
0
0
0
0
0
0
0
0
0
0
0
0
0
0
0
0
0
0
0
0
0
0
1780
1780
2159
2295
2335
2396
2395
2483
2512
2419
2540
2595
2551
2640
2600
2636
2619
2624
2656
2688
2724
2752
2724
2792
2771
2843
2812
2820
2855
2855
2812
2895
2891
2827
2928
2848
2972
2871
2899
2928
2880
2896
2923
2924
2912
2899
2908
2924
2888
2995
2975
2900
2972
2868
2976
2900
2847
2899
2835
2756
2728
2604
2416
2423
0
0
0
0
0
0
0
0
0
0
0
0
0
0
0
0
0
0
0
0
0
0
0
0
1859
1859
2067
2271
2279
2343
2420
2384
2459
2440
2487
2503
2560
2560
2616
2647
2599
2760
2660
2651
2740
2688
2716
2800
2695
2751
2788
2824
2823
2784
2803
2888
2835
2895
2796
2867
2908
2911
2863
2927
2903
2844
2848
2911
2947
2888
2836
2911
2844
2976
2876
2871
2899
2891
2939
2900
2840
2812
2755
2864
2711
2575
2376
2380
0
0
0
0
0
0
0
0
0
0
0
0
0
0
0
0
0
0
0
0
0
0
0
0
1883
1880
2127
2279
2315
2407
2460
2428
2495
2515
2572
2540
2643
2612
2611
2688
2600
2755
2647
2716
2747
2696
2755
2815
2791
2812
2783
2848
2803
2788
2768
2879
2863
2900
2868
2860
2907
2884
2892
2915
2947
2896
2863
2940
2912
2856
2847
2927
2851
2999
2863
2819
2911
2919
2888
2852
2935
2804
2732
2855
2739
2567
2408
2411
0
0
0
0
0
0
0
0
0
0
0
0
0
0
0
0
0
0
0
0
0
0
0
0
1931
1932
2151
2355
2364
2452
2503
2468
2532
2476
2580
2608
2599
2704
2676
2668
2655
2791
2699
2672
2744
2723
2800
2832
2780
2803
2844
2855
2864
2860
2851
2884
2883
2932
2892
2972
2888
2952
2980
2948
2952
2935
2920
2972
2956
2896
2884
2940
2904
2987
2876
2924
2956
2963
2911
2907
2919
2815
2780
2852
2832
2643
2431
2435
0
0
0
0
0
0
0
0
0
0
0
0
0
0
0
0
0
0
0
0
0
0
0
0
1924
1927
2123
2335
2459
2508
2520
2543
2563
2560
2631
2636
2672
2692
2688
2723
2711
2788
2735
2748
2788
2800
2819
2859
2859
2879
2868
2900
2856
2896
2839
3008
2971
2995
2952
2947
2940
2983
2927
3032
2996
3012
2936
2992
3027
2931
2944
3003
2956
3039
2944
2936
2996
2980
2964
2951
2975
2927
2852
2932
2812
2723
2443
2451
0
0
0
0
0
0
0
0
0
0
0
0
0
0
0
0
0
0
0
0
0
0
0
0
1748
1747
2007
2271
2200
2311
2340
2340
2399
2339
2439
2472
2444
2480
2515
2479
2544
2532
2572
2576
2624
2651
2596
2624
2660
2632
2743
2700
2735
2720
2680
2756
2672
2712
2752
2783
2743
2767
2819
2764
2836
2812
2788
2815
2776
2724
2843
2856
2772
2780
2780
2880
2748
2832
2816
2728
2747
2759
2695
2747
2584
2519
2316
2320
0
0
0
0
0
0
0
0
0
0
0
0
0
0
0
0
0
0
0
0
0
0
0
0
1811
1808
2104
2315
2340
2352
2424
2408
2483
2479
2563
2564
2479
2568
2631
2588
2656
2668
2684
2623
2699
2735
2651
2767
2731
2748
2779
2768
2804
2808
2760
2819
2727
2792
2843
2836
2796
2812
2864
2844
2840
2852
2887
2860
2800
2851
2911
2888
2779
2908
2852
2940
2796
2843
2832
2855
2772
2819
2812
2739
2699
2535
2423
2424
0
0
0
0
0
0
0
0
0
0
0
0
0
0
0
0
0
0
0
0
0
0
0
0
1832
1835
2111
2300
2324
2440
2472
2360
2548
2435
2560
2575
2508
2540
2615
2572
2599
2643
2747
2591
2696
2756
2675
2731
2795
2700
2812
2776
2851
2820
2816
2855
2768
2784
2875
2844
2903
2859
2856
2876
2883
2916
2879
2904
2828
2892
2892
2892
2835
2896
2844
3004
2820
2895
2928
2836
2839
2843
2796
2772
2684
2620
2407
2411
0
0
0
0
0
0
0
0
0
0
0
0
0
0
0
0
0
0
0
0
0
0
0
0
1823
1823
2119
2340
2284
2419
2391
2387
2495
2443
2571
2563
2508
2579
2555
2583
2624
2623
2703
2667
2712
2807
2735
2744
2743
2696
2780
2831
2792
2820
2760
2819
2748
2776
2888
2847
2860
2876
2892
2839
2871
2880
2855
2843
2831
2856
2875
2908
2843
2900
2855
2944
2839
2876
2940
2879
2807
2844
2832
2800
2723
2595
2312
2316
0
0
0
0
0
0
0
0
0
0
0
0
0
0
0
0
0
0
0
0
0
0
0
0
1832
1832
2083
2259
2340
2399
2403
2424
2476
2519
2451
2531
2587
2543
2480
2639
2627
2656
2679
2652
2624
2704
2716
2711
2703
2711
2728
2872
2800
2747
2820
2887
2815
2796
2832
2824
2904
2896
2899
2880
2852
2875
2884
2871
2880
2836
2876
2900
2844
2808
2867
2880
2919
2900
2856
2920
2864
2912
2751
2739
2768
2599
2311
2320
0
0
0
0
0
0
0
0
0
0
0
0
0
0
0
0
0
0
0
0
0
0
0
0
1843
1840
2131
2287
2396
2456
2484
2508
2496
2548
2516
2595
2620
2572
2600
2636
2652
2716
2687
2711
2696
2779
2691
2747
2744
2743
2740
2836
2784
2755
2811
2900
2772
2836
2792
2808
2892
2864
2903
2847
2852
2928
2776
2871
2916
2852
2844
2939
2904
2827
2827
2880
2887
2899
2900
2923
2871
2867
2784
2731
2791
2604
2368
2376
0
0
0
0
0
0
0
0
0
0
0
0
0
0
0
0
0
0
0
0
0
0
0
0
1895
1896
2115
2307
2355
2475
2507
2439
2572
2619
2495
2632
2580
2615
2592
2720
2624
2743
2720
2756
2719
2788
2768
2792
2779
2743
2772
2883
2836
2835
2884
2896
2856
2867
2880
2892
2935
2892
2931
2919
2919
2975
2903
2932
2947
2911
2940
3011
2911
2879
2852
2991
2996
3036
2903
2948
2900
2932
2812
2772
2783
2640
2420
2428
0
0
0
0
0
0
0
0
0
0
0
0
0
0
0
0
0
0
0
0
0
0
0
0
1848
1847
2100
2276
2392
2407
2459
2416
2471
2524
2543
2552
2596
2595
2564
2676
2644
2627
2672
2640
2715
2692
2691
2772
2763
2812
2771
2864
2779
2836
2820
2883
2843
2840
2859
2880
2863
2815
2875
2911
2855
2887
2872
2864
2832
2888
2896
2932
2928
2860
2887
2892
2948
2920
2880
2919
2832
2928
2779
2792
2775
2612
2412
2420
0
0
0
0
0
0
0
0
0
0
0
0
0
0
0
0
0
0
0
0
0
0
0
0
1860
1856
2164
2324
2312
2440
2467
2459
2472
2543
2536
2552
2519
2623
2572
2623
2680
2659
2683
2716
2704
2767
2695
2815
2795
2843
2784
2759
2795
2911
2807
2871
2884
2936
2912
2787
2944
2984
2871
2879
2916
2903
2872
2944
2952
2915
2976
2956
2916
3004
2843
3056
2952
2868
2963
2943
2880
2936
2856
2876
2783
2623
2456
2459
0
0
0
0
0
0
0
0
0
0
0
0
0
0
0
0
0
0
0
0
0
0
0
0
1916
1916
2131
2367
2351
2407
2475
2488
2480
2563
2515
2564
2591
2647
2607
2676
2716
2724
2704
2723
2763
2719
2744
2804
2803
2800
2755
2788
2795
2843
2815
2839
2815
2904
2935
2783
2924
2940
2903
2931
2887
2932
2867
2932
2924
2892
2944
2960
2907
2975
2864
3003
2983
2847
3040
3008
2868
2884
2879
2839
2827
2684
2436
2436
0
0
0
0
0
0
0
0
0
0
0
0
0
0
0
0
0
0
0
0
0
0
0
0
1915
1915
2212
2355
2367
2472
2480
2471
2512
2628
2551
2612
2539
2707
2572
2728
2723
2692
2679
2715
2728
2816
2752
2827
2856
2783
2847
2803
2783
2888
2856
2899
2859
2928
2951
2811
2943
2983
2944
2907
2951
2928
2875
2956
2939
2895
2980
3036
2968
2952
2923
3027
2960
2908
2972
2991
2935
2979
2879
2864
2768
2652
2435
2436
0
0
0
0
0
0
0
0
0
0
0
0
0
0
0
0
0
0
0
0
0
0
0
0
1836
1835
2244
2332
2359
2384
2471
2480
2463
2483
2532
2571
2495
2624
2612
2644
2676
2643
2728
2671
2724
2760
2711
2796
2808
2804
2808
2791
2847
2788
2787
2823
2827
2875
2928
2824
2924
2896
2888
2900
2883
2876
2852
2916
2884
2867
2896
2919
2844
2943
2875
2951
2940
2920
2980
2888
2887
2923
2824
2795
2815
2647
2427
2428
0
0
0
0
0
0
0
0
0
0
0
0
0
0
0
0
0
0
0
0
0
0
0
0
1904
1904
2168
2267
2304
2379
2311
2396
2460
2436
2467
2588
2515
2599
2499
2600
2595
2599
2672
2700
2655
2655
2747
2740
2684
2820
2816
2747
2820
2763
2835
2816
2776
2800
2828
2815
2892
2820
2836
2860
2903
2852
2880
2832
2904
2876
2932
2859
2888
2971
2932
2939
2916
2883
2919
2888
2892
2891
2824
2792
2723
2591
2456
2460
0
0
0
0
0
0
0
0
0
0
0
0
0
0
0
0
0
0
0
0
0
0
0
0
1936
1932
2196
2287
2371
2443
2423
2496
2488
2424
2524
2527
2571
2643
2543
2675
2687
2656
2684
2687
2731
2723
2756
2759
2728
2791
2827
2763
2851
2803
2800
2855
2764
2835
2756
2820
2867
2787
2828
2875
2867
2808
2900
2872
2908
2900
2919
2892
2944
2891
2960
2956
2908
2863
2936
2868
2904
2863
2796
2803
2756
2647
2383
2387
0
0
0
0
0
0
0
0
0
0
0
0
0
0
0
0
0
0
0
0
0
0
0
0
1927
1927
2191
2312
2364
2504
2384
2484
2535
2480
2552
2563
2560
2644
2556
2703
2679
2728
2711
2748
2695
2780
2787
2823
2744
2804
2924
2851
2807
2752
2816
2843
2791
2843
2812
2863
2944
2852
2807
2903
2860
2919
2891
2876
2924
2928
2896
2900
2908
2924
2963
2927
2935
2936
2935
2888
2932
2903
2796
2835
2828
2671
2484
2488
0
0
0
0
0
0
0
0
0
0
0
0
0
0
0
0
0
0
0
0
0
0
0
0
1848
1844
2168
2312
2407
2444
2323
2435
2535
2432
2527
2548
2512
2623
2576
2548
2655
2647
2740
2675
2612
2735
2735
2767
2751
2800
2859
2856
2844
2767
2804
2803
2776
2804
2811
2828
2839
2828
2847
2859
2887
2852
2860
2872
2915
2875
2908
2847
2916
2928
2892
2939
2871
2908
2932
2912
2884
2876
2768
2843
2784
2663
2423
2427
0
0
0
0
0
0
0
0
0
0
0
0
0
0
0
0
0
0
0
0
0
0
0
0
1815
1811
2108
2284
2319
2416
2399
2427
2463
2504
2504
2539
2507
2623
2595
2600
2652
2699
2659
2672
2707
2663
2723
2815
2840
2780
2864
2772
2775
2767
2804
2960
2860
2896
2831
2835
2812
2863
2864
2871
2835
2904
2856
2840
2896
2903
2928
2952
2944
2916
2975
2935
2983
2927
2996
2888
2916
2900
2884
2903
2848
2632
2443
2448
0
0
0
0
0
0
0
0
0
0
0
0
0
0
0
0
0
0
0
0
0
0
0
0
1859
1855
2164
2327
2316
2483
2435
2464
2492
2515
2516
2604
2543
2607
2620
2604
2691
2675
2675
2740
2748
2716
2728
2796
2791
2784
2851
2799
2832
2823
2860
2879
2772
2852
2859
2844
2879
2848
2860
2844
2831
2907
2883
2875
2888
2931
2907
2947
2864
2916
2908
2956
2940
2928
2964
2928
2916
2903
2876
2915
2776
2644
2452
2456
0
0
0
0
0
0
0
0
0
0
0
0
0
0
0
0
0
0
0
0
0
0
0
0
1899
1900
2156
2352
2376
2403
2431
2451
2532
2567
2520
2580
2576
2664
2632
2651
2727
2707
2707
2747
2724
2719
2763
2831
2819
2784
2836
2880
2836
2911
2832
2940
2880
2867
2915
2940
2964
2852
2924
2904
2879
2928
2827
2872
2892
2928
2948
2983
2879
2940
2936
3000
2943
3015
2967
2900
2936
2887
2932
2895
2804
2647
2471
2475
0
0
0
0
0
0
0
0
0
0
0
0
0
0
0
0
0
0
0
0
0
0
0
0
1851
1847
2163
2303
2311
2396
2463
2415
2487
2512
2503
2571
2548
2640
2572
2664
2659
2660
2671
2744
2727
2715
2760
2824
2835
2792
2831
2823
2796
2843
2812
2947
2871
2851
2875
2915
2879
2900
2859
2916
2900
2956
2832
2847
2911
2924
2936
2995
2935
2939
2940
2964
2948
2943
2976
2936
2916
2884
2876
2840
2783
2595
2456
2463
0
0
0
0
0
0
0
0
0
0
0
0
0
0
0
0
0
0
0
0
0
0
0
0
1848
1847
2039
2324
2320
2424
2404
2411
2515
2451
2560
2500
2536
2556
2603
2620
2696
2643
2768
2743
2736
2772
2700
2787
2775
2779
2812
2788
2851
2856
2807
2828
2715
2859
2783
2832
2832
2819
2820
2932
2884
2872
2839
2816
2912
2904
2952
2835
2844
2996
2836
2948
2907
2928
2975
2835
2875
2943
2879
2835
2772
2644
2419
2423
0
0
0
0
0
0
0
0
0
0
0
0
0
0
0
0
0
0
0
0
0
0
0
0
1868
1871
2120
2307
2359
2448
2472
2428
2512
2515
2576
2552
2523
2644
2639
2663
2708
2679
2747
2764
2740
2771
2768
2752
2820
2747
2859
2760
2836
2843
2843
2831
2828
2823
2823
2832
2800
2799
2807
2879
2815
2864
2779
2876
2919
2907
2907
2836
2883
2995
2840
2915
2908
2931
2948
2836
2831
2875
2863
2800
2744
2624
2400
2407
0
0
0
0
0
0
0
0
0
0
0
0
0
0
0
0
0
0
0
0
0
0
0
0
1855
1855
2120
2388
2335
2455
2467
2471
2515
2504
2636
2552
2556
2619
2635
2659
2716
2684
2771
2808
2843
2811
2791
2820
2788
2759
2868
2767
2879
2863
2859
2876
2804
2819
2843
2887
2815
2780
2863
2872
2851
2872
2907
2888
2936
2931
3004
2911
2847
3040
2872
2939
2944
2899
2947
2887
2912
2924
2920
2807
2800
2640
2471
2475
0
0
0
0
0
0
0
0
0
0
0
0
0
0
0
0
0
0
0
0
0
0
0
0
1852
1852
2164
2332
2327
2444
2519
2448
2507
2544
2536
2579
2564
2583
2587
2643
2699
2628
2747
2740
2736
2771
2756
2820
2815
2771
2852
2816
2856
2784
2835
2860
2808
2844
2840
2875
2855
2800
2872
2851
2852
2868
2820
2895
2911
2923
2948
2847
2884
2955
2872
2900
2900
2904
2940
2856
2896
2892
2855
2823
2811
2672
2440
2444
0
0
0
0
0
0
0
0
0
0
0
0
0
0
0
0
0
0
0
0
0
0
0
0
1848
1847
2096
2256
2316
2348
2420
2503
2527
2492
2539
2540
2620
2624
2603
2623
2676
2724
2740
2700
2772
2739
2743
2840
2864
2748
2823
2787
2892
2844
2900
2903
2836
2928
2843
2851
2916
2904
2867
2899
2908
2904
2796
2896
2935
2940
2903
2916
2915
2895
2871
2916
2920
2927
2959
2920
2867
2971
2863
2875
2844
2731
2468
2471
0
0
0
0
0
0
0
0
0
0
0
0
0
0
0
0
0
0
0
0
0
0
0
0
1852
1851
2183
2291
2316
2420
2495
2480
2572
2520
2519
2587
2636
2619
2628
2624
2736
2727
2747
2711
2803
2731
2780
2836
2839
2764
2807
2795
2840
2863
2852
2904
2820
2936
2796
2907
2912
2851
2903
2908
2916
2887
2851
2836
2892
2979
2867
2915
2896
2908
2887
2872
2856
2943
2907
2899
2868
2927
2844
2879
2847
2679
2467
2472
0
0
0
0
0
0
0
0
0
0
0
0
0
0
0
0
0
0
0
0
0
0
0
0
1923
1920
2176
2371
2363
2467
2500
2540
2500
2584
2599
2615
2663
2632
2676
2687
2691
2775
2791
2712
2819
2812
2816
2847
2860
2759
2875
2863
2915
2932
2904
2940
2812
2960
2871
2908
2907
2888
2904
2896
2939
2919
2856
2895
2996
3012
2871
2936
2935
2903
2887
2952
2948
2975
2991
2919
2911
2972
2887
2928
2843
2744
2488
2491
0
0
0
0
0
0
0
0
0
0
0
0
0
0
0
0
0
0
0
0
0
0
0
0
1856
1852
2115
2311
2323
2427
2503
2512
2531
2543
2551
2623
2624
2648
2648
2652
2700
2724
2720
2727
2800
2751
2808
2879
2875
2739
2859
2835
2908
2823
2880
2884
2883
2923
2868
2843
2947
2915
2899
2963
2916
2944
2927
2891
2916
2915
2876
2919
2900
2924
2923
2884
2940
2964
2920
2899
2903
2888
2908
2892
2812
2708
2440
2444
0
0
0
0
0
0
0
0
0
0
0
0
0
0
0
0
0
0
0
0
0
0
0
0
1883
1879
2111
2332
2384
2404
2468
2495
2539
2588
2572
2527
2500
2587
2572
2620
2751
2635
2711
2787
2652
2772
2784
2748
2831
2796
2795
2831
2872
2864
2904
2876
2808
2924
2815
2887
2864
2867
2892
2883
2879
2891
2867
2836
2863
2868
2892
2919
2904
2912
2875
2915
2887
2879
2863
2911
2928
2887
2896
2840
2763
2643
2416
2419
0
0
0
0
0
0
0
0
0
0
0
0
0
0
0
0
0
0
0
0
0
0
0
0
1851
1848
2120
2351
2400
2464
2499
2511
2544
2616
2627
2619
2595
2651
2616
2712
2683
2660
2712
2795
2708
2784
2703
2823
2795
2804
2832
2847
2884
2832
2800
2907
2783
2943
2832
2891
2864
2843
2864
2887
2900
2835
2891
2840
2852
2827
2875
2932
2904
2915
2875
2911
2812
2911
2840
2876
2927
2840
2844
2812
2783
2604
2459
2460
0
0
0
0
0
0
0
0
0
0
0
0
0
0
0
0
0
0
0
0
0
0
0
0
1864
1864
2140
2351
2435
2431
2520
2488
2532
2619
2604
2608
2592
2648
2647
2712
2776
2692
2799
2787
2759
2843
2780
2824
2868
2836
2887
2839
2920
2884
2847
2936
2836
2948
2908
2920
2943
2868
2876
2963
2916
2912
2939
2852
2923
2868
2860
2972
2883
2940
2900
2940
2915
2924
2927
2915
2928
2899
2915
2855
2832
2632
2403
2404
0
0
0
0
0
0
0
0
0
0
0
0
0
0
0
0
0
0
0
0
0
0
0
0
1871
1868
2140
2336
2412
2480
2540
2483
2552
2556
2643
2639
2644
2647
2628
2688
2760
2699
2804
2800
2728
2852
2787
2807
2860
2840
2864
2867
2891
2888
2888
2900
2851
2919
2896
2935
2899
2900
2912
2911
2888
2900
2907
2876
2896
2864
2916
2995
2907
2915
2896
2936
2924
2900
2931
2836
2940
2876
2843
2844
2783
2635
2435
2439
0
0
0
0
0
0
0
0
0
0
0
0
0
0
0
0
0
0
0
0
0
0
0
0
1839
1835
2095
2299
2384
2444
2439
2500
2575
2544
2555
2587
2608
2692
2616
2643
2700
2704
2764
2695
2780
2771
2731
2783
2835
2851
2872
2820
2816
2940
2855
2896
2920
2932
3015
2828
2971
2884
2868
2912
2924
2983
2923
2876
2867
2880
2908
2984
2915
2904
2919
2852
2960
2820
2920
2852
2883
2899
2892
2820
2824
2643
2504
2504
0
0
0
0
0
0
0
0
0
0
0
0
0
0
0
0
0
0
0
0
0
0
0
0
1747
1740
2024
2167
2295
2340
2376
2388
2463
2416
2439
2476
2503
2600
2603
2572
2612
2548
2647
2595
2607
2659
2592
2660
2692
2700
2756
2711
2716
2780
2772
2804
2719
2783
2800
2695
2836
2791
2835
2804
2763
2812
2743
2780
2775
2752
2803
2836
2732
2815
2804
2716
2827
2723
2771
2796
2736
2760
2663
2692
2675
2547
2400
2403
0
0
0
0
0
0
0
0
0
0
0
0
0
0
0
0
0
0
0
0
0
0
0
0
1647
1636
1856
2064
2131
2199
2192
2212
2231
2324
2304
2332
2323
2419
2348
2424
2387
2452
2508
2380
2416
2483
2427
2484
2535
2543
2579
2583
2563
2588
2632
2632
2663
2671
2651
2504
2700
2600
2615
2631
2640
2639
2603
2555
2619
2547
2624
2627
2620
2568
2612
2588
2567
2540
2584
2535
2579
2648
2539
2452
2491
2367
2215
2215
0
0
0
0
0
0
0
0
0
0
0
0
0
0
0
0
0
0
0
0
0
0
0
0
1323
1311
1504
1683
1664
1784
1812
1828
1887
1888
1927
1972
1992
2019
1995
2011
1975
2016
2095
2052
2075
2128
2059
2107
2148
2196
2220
2204
2191
2199
2231
2287
2200
2207
2283
2147
2255
2168
2191
2280
2267
2252
2208
2215
2199
2167
2227
2276
2211
2195
2135
2159
2248
2112
2192
2135
2180
2180
2088
2124
2179
2020
1852
1851
0
0
0
0
0
0
0
0
0
0
0
0
0
0
0
0
0
0
0
0
0
0
0
0