P2
88 80
4095
932
936
1104
1276
1388
1412
1444
1404
1363
1240
1171
955
948
955
919
1035
1056
1195
1423
1535
1651
1803
1791
1899
1848
1663
1680
1627
1559
1472
1455
1324
1215
1256
1352
1351
1523
1675
1771
1923
1932
1967
2000
1975
1967
1903
1831
1715
1615
1472
1372
1228
1303
1383
1504
1628
1675
1592
1515
1567
1540
1599
1468
1468
0
0
0
0
0
0
0
0
0
0
0
0
0
0
0
0
0
0
0
0
0
0
0
0
1320
1323
1479
1680
1676
1691
1624
1528
1436
1355
1220
1163
1116
1155
1156
1287
1384
1524
1796
1927
2044
2088
2032
2019
2000
1848
1808
1687
1667
1568
1543
1492
1444
1491
1600
1736
1924
2103
2147
2212
2287
2276
2219
2148
2115
2051
1883
1787
1667
1560
1475
1400
1423
1619
1779
1975
2007
1939
1863
1940
1904
1915
1795
1796
0
0
0
0
0
0
0
0
0
0
0
0
0
0
0
0
0
0
0
0
0
0
0
0
1443
1443
1660
1739
1739
1696
1627
1536
1452
1363
1335
1212
1203
1319
1368
1556
1680
1824
2064
2135
2123
2172
2048
2032
1876
1712
1692
1699
1632
1583
1632
1656
1644
1820
1952
2052
2244
2388
2364
2475
2451
2375
2355
2236
2124
2056
1823
1731
1620
1551
1559
1547
1679
1836
2015
2219
2259
2243
2151
2232
2096
2048
1888
1891
0
0
0
0
0
0
0
0
0
0
0
0
0
0
0
0
0
0
0
0
0
0
0
0
1368
1371
1639
1660
1595
1552
1451
1311
1319
1352
1315
1375
1391
1487
1620
1831
1960
2007
2172
2172
2088
2047
1919
1763
1680
1603
1684
1604
1656
1663
1644
1759
1863
2055
2248
2291
2428
2504
2439
2496
2423
2323
2212
2096
1952
1835
1680
1620
1591
1603
1631
1727
1908
2039
2156
2359
2428
2312
2284
2300
2156
2043
1740
1743
0
0
0
0
0
0
0
0
0
0
0
0
0
0
0
0
0
0
0
0
0
0
0
0
1255
1252
1443
1540
1428
1287
1312
1212
1340
1335
1444
1515
1551
1763
1804
1952
2108
2080
2143
2071
1956
1779
1631
1560
1439
1443
1463
1651
1660
1739
1719
1955
2064
2311
2359
2427
2539
2504
2423
2351
2336
2152
2019
1863
1771
1644
1616
1607
1676
1688
1780
1944
2079
2183
2299
2372
2352
2340
2280
2144
2027
1796
1628
1628
0
0
0
0
0
0
0
0
0
0
0
0
0
0
0
0
0
0
0
0
0
0
0
0
1179
1180
1344
1399
1315
1260
1260
1244
1403
1435
1531
1668
1771
1976
2003
2007
2048
2012
1900
1840
1663
1584
1448
1387
1324
1388
1511
1708
1791
1844
1904
2115
2216
2335
2448
2368
2451
2351
2259
2132
2060
1887
1807
1712
1632
1608
1580
1599
1684
1763
1907
2107
2260
2267
2256
2283
2227
2099
2019
1851
1712
1632
1483
1483
0
0
0
0
0
0
0
0
0
0
0
0
0
0
0
0
0
0
0
0
0
0
0
0
1047
1043
1284
1352
1376
1391
1371
1511
1580
1711
1852
1872
1948
2112
2035
2024
2016
1879
1772
1632
1555
1440
1388
1420
1515
1596
1676
1860
1948
2099
2203
2300
2211
2415
2423
2332
2371
2180
2099
1976
1919
1791
1728
1756
1740
1752
1831
1864
1907
2008
2095
2239
2316
2292
2220
2131
2088
1943
1839
1707
1652
1555
1524
1524
0
0
0
0
0
0
0
0
0
0
0
0
0
0
0
0
0
0
0
0
0
0
0
0
996
999
1163
1399
1463
1543
1659
1735
1835
1855
1996
1975
1963
2076
2000
1959
1800
1699
1564
1463
1403
1475
1468
1568
1675
1827
1940
2124
2148
2264
2256
2391
2255
2323
2292
2219
2147
1944
1823
1779
1764
1775
1839
1903
1979
1919
2012
2060
2104
2200
2187
2235
2287
2132
2088
1940
1892
1743
1715
1663
1635
1620
1571
1572
0
0
0
0
0
0
0
0
0
0
0
0
0
0
0
0
0
0
0
0
0
0
0
0
1019
1019
1232
1492
1635
1768
1792
1939
1939
1960
1991
1911
1883
1844
1756
1747
1719
1563
1499
1440
1491
1564
1651
1807
1915
2084
2291
2192
2248
2227
2216
2219
2099
2039
1976
1911
1815
1667
1619
1715
1688
1888
2024
2064
2184
2191
2252
2292
2180
2224
2072
2100
2016
1896
1751
1643
1676
1588
1564
1700
1691
1815
1747
1744
0
0
0
0
0
0
0
0
0
0
0
0
0
0
0
0
0
0
0
0
0
0
0
0
1011
1011
1320
1556
1679
1859
1876
1988
1999
1920
1848
1767
1611
1592
1520
1556
1568
1515
1560
1448
1632
1763
1855
1952
2139
2144
2267
2171
2108
2036
2051
1891
1788
1763
1728
1599
1627
1575
1596
1720
1856
2003
2147
2215
2308
2228
2228
2248
2099
2071
1827
1799
1800
1632
1559
1436
1528
1552
1567
1731
1852
1867
1876
1875
0
0
0
0
0
0
0
0
0
0
0
0
0
0
0
0
0
0
0
0
0
0
0
0
1188
1187
1456
1720
1816
1939
1947
1983
1928
1819
1695
1571
1423
1376
1304
1455
1532
1643
1739
1732
1876
1975
2052
2215
2224
2203
2264
2139
1971
1876
1775
1743
1587
1543
1600
1639
1720
1767
1872
1987
2095
2219
2379
2308
2372
2279
2179
2124
2004
1932
1688
1615
1640
1563
1516
1511
1592
1695
1800
1983
2024
2047
2019
2016
0
0
0
0
0
0
0
0
0
0
0
0
0
0
0
0
0
0
0
0
0
0
0
0
1340
1340
1643
1800
1860
1891
1912
1868
1827
1668
1499
1351
1239
1292
1268
1387
1612
1744
1860
2016
2028
2156
2168
2191
2179
2107
2120
1908
1723
1643
1588
1535
1483
1496
1623
1675
1907
2004
2075
2228
2219
2308
2319
2324
2292
2136
2035
1935
1731
1684
1548
1559
1540
1592
1592
1596
1792
1891
1916
2148
2139
2103
1951
1952
0
0
0
0
0
0
0
0
0
0
0
0
0
0
0
0
0
0
0
0
0
0
0
0
1388
1384
1648
1748
1720
1719
1755
1624
1540
1400
1331
1244
1132
1264
1348
1452
1671
1907
2056
2047
2139
2095
2072
2051
1960
1863
1763
1643
1496
1480
1368
1479
1492
1552
1695
1940
2068
2167
2283
2312
2336
2332
2291
2188
2075
1875
1863
1724
1556
1536
1544
1595
1612
1655
1744
1947
2095
2184
2216
2203
2100
1940
1763
1767
0
0
0
0
0
0
0
0
0
0
0
0
0
0
0
0
0
0
0
0
0
0
0
0
1459
1460
1588
1635
1623
1548
1484
1423
1456
1336
1303
1351
1235
1359
1483
1659
1812
2024
2039
2008
2104
1968
1932
1827
1739
1596
1495
1367
1372
1407
1427
1504
1460
1631
1832
2095
2235
2331
2315
2260
2224
2123
2020
1871
1828
1664
1659
1580
1448
1531
1592
1679
1736
1896
1947
2072
2095
2224
2167
2092
1960
1780
1575
1572
0
0
0
0
0
0
0
0
0
0
0
0
0
0
0
0
0
0
0
0
0
0
0
0
1324
1324
1428
1492
1339
1335
1308
1256
1367
1447
1507
1479
1452
1595
1699
1840
1979
2028
2092
1987
1976
1803
1700
1564
1516
1479
1419
1400
1372
1444
1475
1643
1680
1855
2071
2200
2299
2344
2335
2255
2115
1923
1819
1683
1668
1579
1659
1620
1656
1775
1860
1939
2028
2160
2107
2180
2139
2175
2084
1999
1816
1611
1459
1459
0
0
0
0
0
0
0
0
0
0
0
0
0
0
0
0
0
0
0
0
0
0
0
0
1184
1183
1235
1259
1124
1103
1128
1188
1323
1492
1603
1704
1675
1816
1807
1935
1976
1987
1952
1815
1704
1532
1471
1379
1380
1399
1392
1363
1484
1544
1603
1832
1875
2048
2231
2272
2291
2264
2235
2063
1871
1731
1604
1531
1547
1603
1691
1840
1884
2000
2056
2135
2207
2244
2143
2148
2064
2004
1896
1760
1599
1483
1319
1320
0
0
0
0
0
0
0
0
0
0
0
0
0
0
0
0
0
0
0
0
0
0
0
0
911
908
1019
1056
952
1080
1103
1239
1464
1719
1779
1851
1875
1867
1820
1852
1823
1775
1667
1512
1376
1316
1280
1287
1395
1384
1531
1456
1604
1716
1815
1984
2003
2123
2087
2267
2188
2107
1988
1931
1723
1568
1508
1583
1672
1739
1892
1975
2123
2175
2196
2236
2196
2151
2124
1899
1736
1652
1508
1508
1471
1471
1284
1283
0
0
0
0
0
0
0
0
0
0
0
0
0
0
0
0
0
0
0
0
0
0
0
0
768
768
960
976
975
1179
1180
1339
1555
1771
1876
1891
1907
1855
1720
1711
1643
1555
1448
1348
1331
1316
1323
1299
1383
1500
1651
1663
1812
1884
1936
2052
2035
2076
2015
2100
1947
1900
1820
1780
1651
1583
1644
1639
1799
1923
2043
2104
2187
2208
2127
2124
2027
1976
1915
1708
1555
1512
1384
1436
1375
1439
1423
1420
0
0
0
0
0
0
0
0
0
0
0
0
0
0
0
0
0
0
0
0
0
0
0
0
788
791
991
1055
1091
1327
1420
1512
1716
1891
1972
1891
1824
1796
1655
1532
1499
1355
1364
1284
1315
1355
1339
1491
1616
1755
1871
1936
2064
2095
2092
2084
1975
1912
1835
1876
1787
1748
1760
1812
1736
1715
1867
1932
2076
2115
2232
2243
2231
2180
2100
2075
1924
1831
1828
1600
1464
1463
1436
1547
1572
1591
1619
1620
0
0
0
0
0
0
0
0
0
0
0
0
0
0
0
0
0
0
0
0
0
0
0
0
739
740
1092
1196
1335
1495
1552
1631
1763
1888
1935
1824
1652
1539
1407
1316
1320
1232
1312
1267
1351
1476
1583
1672
1784
1944
2072
2067
2076
2072
1995
1936
1803
1708
1571
1591
1559
1559
1664
1823
1812
1919
2028
2099
2172
2196
2240
2092
2072
1984
1732
1788
1767
1631
1676
1468
1480
1479
1551
1668
1727
1820
1724
1724
0
0
0
0
0
0
0
0
0
0
0
0
0
0
0
0
0
0
0
0
0
0
0
0
931
928
1191
1416
1444
1587
1703
1719
1763
1736
1688
1640
1471
1312
1235
1280
1147
1208
1376
1452
1659
1723
1740
1887
2003
2039
2127
2007
1979
1972
1848
1647
1524
1463
1460
1451
1547
1684
1787
1891
1964
2207
2139
2256
2244
2180
2136
1987
1747
1780
1584
1519
1540
1515
1539
1583
1531
1635
1795
1884
2004
2027
1919
1919
0
0
0
0
0
0
0
0
0
0
0
0
0
0
0
0
0
0
0
0
0
0
0
0
1107
1104
1395
1591
1639
1643
1756
1688
1668
1635
1528
1391
1276
1167
1152
1195
1244
1300
1524
1647
1775
1884
1911
1960
2079
2012
1964
1931
1839
1696
1580
1496
1328
1364
1420
1543
1544
1775
1907
1963
1996
2148
2056
2211
2007
1984
1859
1747
1539
1583
1439
1404
1480
1483
1555
1619
1699
1903
1992
2031
2092
2092
1948
1951
0
0
0
0
0
0
0
0
0
0
0
0
0
0
0
0
0
0
0
0
0
0
0
0
1311
1308
1524
1747
1652
1715
1751
1615
1591
1447
1347
1236
1199
1219
1216
1316
1467
1511
1744
1880
1975
1995
1952
1972
1964
1883
1883
1668
1504
1480
1467
1447
1391
1431
1576
1700
1799
1983
1979
2059
2064
2083
2059
2016
1879
1779
1716
1607
1523
1555
1468
1472
1615
1640
1760
1883
1956
2047
2163
2120
2208
2055
1904
1904
0
0
0
0
0
0
0
0
0
0
0
0
0
0
0
0
0
0
0
0
0
0
0
0
1396
1395
1595
1680
1675
1591
1636
1484
1383
1271
1211
1180
1207
1283
1355
1471
1703
1728
1916
1967
2056
1948
1867
1828
1747
1620
1615
1500
1436
1395
1388
1451
1476
1599
1756
1900
2015
2056
2052
2088
2023
1999
1839
1748
1652
1588
1580
1584
1571
1635
1636
1643
1760
1804
1968
2139
2100
2184
2135
2143
2068
1903
1691
1691
0
0
0
0
0
0
0
0
0
0
0
0
0
0
0
0
0
0
0
0
0
0
0
0
1332
1332
1447
1475
1387
1400
1216
1268
1144
1108
1184
1224
1272
1451
1531
1676
1891
1868
1907
1888
1831
1739
1543
1548
1468
1368
1336
1311
1256
1303
1412
1519
1675
1827
1896
1924
2031
2036
2028
1892
1827
1671
1568
1432
1432
1488
1579
1600
1732
1796
1800
1851
1952
2024
1995
2080
2040
2028
1916
1903
1767
1635
1376
1375
0
0
0
0
0
0
0
0
0
0
0
0
0
0
0
0
0
0
0
0
0
0
0
0
1168
1167
1255
1271
1176
1199
1095
1148
1140
1159
1272
1380
1455
1672
1740
1835
1895
1875
1840
1843
1611
1504
1348
1319
1271
1267
1320
1268
1288
1359
1480
1627
1743
1919
1916
1920
1959
1904
1891
1723
1659
1516
1427
1328
1419
1463
1700
1816
1887
1976
1983
2000
2051
2079
1984
1911
1860
1768
1603
1611
1568
1423
1283
1284
0
0
0
0
0
0
0
0
0
0
0
0
0
0
0
0
0
0
0
0
0
0
0
0
1060
1059
1127
1075
988
1047
1008
1088
1223
1316
1499
1651
1671
1807
1828
1836
1807
1780
1763
1708
1519
1479
1207
1236
1291
1363
1436
1483
1520
1615
1696
1787
1832
1932
1860
1835
1771
1715
1687
1571
1595
1512
1480
1543
1595
1659
1944
1992
2132
2176
2144
2131
2143
2028
1875
1731
1727
1603
1448
1504
1435
1371
1375
1375
0
0
0
0
0
0
0
0
0
0
0
0
0
0
0
0
0
0
0
0
0
0
0
0
799
795
919
952
855
948
1040
1215
1352
1535
1691
1784
1715
1820
1763
1640
1660
1528
1595
1544
1496
1399
1255
1303
1295
1471
1616
1716
1727
1836
1859
1931
1875
1839
1724
1599
1543
1487
1460
1488
1548
1551
1592
1675
1795
1903
2160
2144
2139
2164
2079
2011
1979
1812
1651
1531
1476
1491
1391
1471
1447
1531
1472
1475
0
0
0
0
0
0
0
0
0
0
0
0
0
0
0
0
0
0
0
0
0
0
0
0
687
683
792
839
900
1055
1204
1372
1576
1671
1764
1743
1651
1671
1532
1435
1375
1356
1423
1495
1539
1479
1327
1336
1464
1631
1755
1876
1956
1939
1947
1836
1707
1603
1535
1399
1448
1375
1408
1535
1600
1719
1860
1904
1983
2095
2200
2256
2160
2015
2015
1815
1748
1627
1576
1507
1491
1519
1383
1591
1656
1692
1691
1691
0
0
0
0
0
0
0
0
0
0
0
0
0
0
0
0
0
0
0
0
0
0
0
0
672
671
919
1016
1072
1272
1403
1611
1724
1720
1815
1588
1452
1439
1331
1235
1227
1211
1371
1452
1531
1520
1427
1544
1703
1783
1867
1903
1895
1844
1767
1644
1547
1391
1407
1331
1392
1407
1483
1659
1819
1876
2039
1988
2020
2160
2100
2071
1903
1856
1691
1587
1508
1483
1451
1388
1511
1591
1547
1703
1855
1859
1791
1792
0
0
0
0
0
0
0
0
0
0
0
0
0
0
0
0
0
0
0
0
0
0
0
0
807
803
1039
1132
1259
1484
1628
1700
1772
1728
1643
1447
1303
1315
1167
1163
1227
1247
1364
1543
1687
1663
1603
1700
1820
1900
1967
1904
1848
1707
1619
1455
1356
1395
1395
1351
1507
1559
1724
1959
1956
2084
2163
2071
2056
2015
1936
1872
1767
1643
1496
1476
1512
1464
1471
1596
1720
1924
1836
2036
2103
2020
1875
1875
0
0
0
0
0
0
0
0
0
0
0
0
0
0
0
0
0
0
0
0
0
0
0
0
848
843
1099
1168
1383
1535
1628
1724
1764
1616
1464
1252
1123
1208
1124
1155
1280
1320
1551
1704
1791
1891
1848
1944
1884
1927
1903
1732
1700
1592
1516
1427
1327
1332
1439
1567
1664
1780
1960
2100
2132
2111
2075
1980
1939
1876
1715
1647
1600
1544
1452
1455
1475
1560
1647
1728
1924
2119
2035
2132
2168
2064
1808
1811
0
0
0
0
0
0
0
0
0
0
0
0
0
0
0
0
0
0
0
0
0
0
0
0
883
880
1087
1199
1251
1363
1511
1532
1507
1379
1195
1011
1048
1087
1111
1163
1400
1536
1756
1839
1868
1948
1856
1851
1895
1739
1668
1532
1476
1407
1351
1363
1363
1560
1651
1659
1903
1931
2015
2020
2047
1992
1880
1687
1684
1468
1444
1528
1487
1480
1431
1536
1696
1704
1883
1924
2036
2183
2183
2108
2152
1896
1680
1679
0
0
0
0
0
0
0
0
0
0
0
0
0
0
0
0
0
0
0
0
0
0
0
0
883
876
964
1103
1124
1252
1356
1363
1328
1231
1083
1016
1040
1103
1192
1360
1576
1711
1896
1951
1880
1964
1828
1727
1659
1524
1468
1364
1347
1356
1312
1380
1463
1679
1824
1835
2003
1972
2028
1975
1856
1795
1652
1524
1423
1344
1379
1431
1588
1619
1620
1776
1908
1892
2048
2000
2063
2203
2072
1999
1888
1675
1412
1411
0
0
0
0
0
0
0
0
0
0
0
0
0
0
0
0
0
0
0
0
0
0
0
0
791
788
963
1035
1008
1123
1279
1311
1160
1091
999
1064
1136
1276
1403
1607
1788
1856
1988
1936
1932
1895
1739
1564
1507
1371
1364
1315
1347
1419
1455
1572
1703
1892
2055
2004
2087
1968
1915
1823
1676
1604
1499
1375
1399
1295
1556
1711
1840
1935
1996
2036
2131
2080
2212
2091
2128
2099
2003
1839
1739
1524
1311
1307
0
0
0
0
0
0
0
0
0
0
0
0
0
0
0
0
0
0
0
0
0
0
0
0
668
663
800
1004
1048
1147
1215
1087
1087
1068
1116
1231
1347
1451
1572
1739
1828
1920
1908
1896
1700
1679
1540
1403
1384
1315
1451
1392
1488
1508
1644
1791
1916
2011
2040
1968
1944
1787
1740
1572
1508
1427
1391
1343
1504
1495
1720
1899
1995
2104
2127
2180
2207
2148
2152
1988
1956
1892
1752
1623
1560
1439
1280
1279
0
0
0
0
0
0
0
0
0
0
0
0
0
0
0
0
0
0
0
0
0
0
0
0
675
671
784
919
996
1159
1047
1016
1003
1056
1203
1419
1583
1724
1780
1867
1796
1751
1688
1620
1512
1368
1331
1356
1323
1379
1544
1619
1787
1807
1783
1956
2000
1936
1979
1879
1756
1544
1475
1403
1344
1400
1431
1492
1668
1784
1948
2120
2152
2287
2176
2215
2139
1964
1988
1776
1608
1595
1455
1380
1391
1356
1219
1219
0
0
0
0
0
0
0
0
0
0
0
0
0
0
0
0
0
0
0
0
0
0
0
0
683
679
896
1040
1028
1096
1000
1012
1092
1179
1347
1591
1740
1815
1803
1856
1816
1600
1508
1424
1252
1271
1248
1331
1340
1540
1716
1844
2004
1951
1987
1999
1964
1856
1803
1712
1552
1392
1351
1356
1359
1448
1508
1675
1788
1912
2124
2235
2131
2224
2071
1996
1912
1744
1676
1504
1400
1347
1339
1292
1355
1308
1231
1232
0
0
0
0
0
0
0
0
0
0
0
0
0
0
0
0
0
0
0
0
0
0
0
0
811
808
940
1083
1027
1000
900
959
1123
1272
1559
1743
1804
1891
1831
1847
1683
1444
1399
1287
1248
1212
1311
1532
1551
1751
1884
2023
2083
2084
2027
1963
1840
1671
1627
1572
1467
1400
1379
1476
1496
1668
1752
1879
2024
2151
2171
2216
2115
2155
1975
1812
1700
1483
1543
1376
1287
1364
1371
1383
1464
1415
1371
1371
0
0
0
0
0
0
0
0
0
0
0
0
0
0
0
0
0
0
0
0
0
0
0
0
835
831
1072
1071
980
947
936
1079
1268
1335
1612
1748
1759
1843
1772
1684
1499
1324
1247
1223
1279
1379
1463
1648
1788
1995
2064
2107
2127
2064
1904
1820
1652
1499
1535
1423
1504
1383
1468
1639
1719
1860
1992
2075
2136
2140
2120
2083
1956
1923
1760
1564
1551
1384
1451
1356
1359
1468
1488
1512
1587
1627
1620
1619
0
0
0
0
0
0
0
0
0
0
0
0
0
0
0
0
0
0
0
0
0
0
0
0
931
924
971
988
851
867
971
1083
1308
1436
1520
1555
1599
1559
1567
1519
1336
1375
1251
1280
1435
1519
1687
1880
1864
1992
2048
2068
1976
1815
1688
1635
1471
1515
1416
1515
1555
1588
1604
1831
1927
1987
2048
2116
2120
1987
1844
1819
1636
1644
1435
1376
1367
1384
1468
1491
1515
1624
1680
1903
1840
1828
1756
1756
0
0
0
0
0
0
0
0
0
0
0
0
0
0
0
0
0
0
0
0
0
0
0
0
904
899
940
915
840
935
1080
1175
1380
1480
1520
1407
1444
1343
1316
1371
1235
1371
1331
1483
1639
1712
1843
1979
1983
1992
1915
1912
1739
1604
1460
1475
1444
1547
1619
1659
1751
1743
1816
1935
2059
2060
1987
2011
1892
1720
1595
1560
1399
1499
1308
1280
1415
1507
1563
1647
1847
1848
1883
2068
2035
1920
1836
1836
0
0
0
0
0
0
0
0
0
0
0
0
0
0
0
0
0
0
0
0
0
0
0
0
864
855
863
928
924
1027
1183
1271
1399
1335
1336
1260
1143
1231
1227
1247
1283
1496
1544
1659
1824
1867
1972
1996
1903
1832
1768
1692
1587
1503
1439
1467
1552
1727
1831
1988
1939
2024
2075
2060
2052
2028
1928
1851
1708
1531
1408
1411
1343
1408
1347
1479
1627
1787
1855
1979
2079
2055
2076
2179
2152
1971
1799
1799
0
0
0
0
0
0
0
0
0
0
0
0
0
0
0
0
0
0
0
0
0
0
0
0
827
819
859
1011
1131
1223
1304
1355
1380
1312
1243
1144
1123
1163
1191
1295
1419
1643
1764
1903
2004
2019
1988
1919
1843
1719
1600
1528
1431
1443
1447
1695
1788
1987
2075
2131
2143
2151
2055
2095
2004
1948
1771
1715
1627
1467
1428
1488
1464
1595
1596
1712
1915
2060
2167
2228
2315
2288
2219
2260
2084
1943
1664
1663
0
0
0
0
0
0
0
0
0
0
0
0
0
0
0
0
0
0
0
0
0
0
0
0
727
720
891
1128
1059
1172
1188
1140
1099
927
939
915
883
971
1084
1171
1384
1556
1723
1787
1832
1783
1604
1500
1376
1268
1259
1207
1272
1316
1420
1639
1703
1868
1971
2000
1919
1855
1819
1628
1583
1508
1420
1388
1296
1256
1388
1459
1471
1583
1695
1939
1952
2116
2179
2104
2132
2107
1979
1939
1679
1512
1320
1320
0
0
0
0
0
0
0
0
0
0
0
0
0
0
0
0
0
0
0
0
0
0
0
0
908
904
1152
1327
1315
1259
1216
1103
1043
952
975
1003
948
1112
1327
1432
1636
1787
1859
1784
1771
1688
1447
1407
1268
1247
1259
1263
1371
1539
1635
1836
1871
2012
2055
1972
1808
1695
1608
1464
1368
1356
1380
1363
1355
1464
1596
1676
1680
1923
1964
2135
2075
2168
2175
2184
2055
2024
1900
1715
1580
1356
1271
1268
0
0
0
0
0
0
0
0
0
0
0
0
0
0
0
0
0
0
0
0
0
0
0
0
1064
1060
1275
1383
1324
1287
1175
939
1019
860
992
1079
1139
1268
1492
1568
1707
1796
1884
1632
1583
1476
1276
1252
1272
1184
1332
1395
1612
1723
1863
2003
1967
1955
1972
1799
1699
1511
1412
1355
1335
1399
1403
1503
1516
1676
1788
1867
1915
2027
2035
2248
2080
2143
2156
2004
1923
1819
1644
1540
1376
1336
1208
1207
0
0
0
0
0
0
0
0
0
0
0
0
0
0
0
0
0
0
0
0
0
0
0
0
1108
1111
1295
1391
1199
1160
1003
887
948
887
1096
1223
1287
1507
1603
1688
1771
1743
1716
1535
1412
1375
1255
1259
1300
1296
1491
1671
1755
1883
1900
1987
1900
1832
1807
1608
1472
1403
1384
1308
1368
1460
1544
1663
1747
1836
1899
1992
1955
2028
1995
2064
1971
1956
1979
1835
1659
1571
1480
1407
1311
1279
1152
1155
0
0
0
0
0
0
0
0
0
0
0
0
0
0
0
0
0
0
0
0
0
0
0
0
1052
1052
1135
1127
1055
983
903
876
939
1044
1112
1340
1548
1620
1600
1744
1684
1587
1488
1296
1167
1188
1203
1307
1411
1547
1656
1884
1863
1848
1924
1931
1779
1648
1543
1400
1415
1427
1447
1459
1507
1607
1743
1819
1883
1863
1883
1880
1792
1735
1763
1727
1748
1696
1611
1596
1444
1443
1240
1259
1376
1351
1259
1259
0
0
0
0
0
0
0
0
0
0
0
0
0
0
0
0
0
0
0
0
0
0
0
0
896
895
975
959
936
915
904
960
988
1171
1311
1523
1655
1640
1648
1611
1504
1443
1284
1211
1164
1263
1263
1467
1600
1719
1763
1868
1796
1715
1696
1727
1535
1491
1371
1339
1460
1503
1603
1619
1667
1807
1711
1807
1824
1720
1659
1679
1615
1507
1468
1476
1460
1435
1424
1408
1320
1279
1224
1267
1487
1495
1471
1472
0
0
0
0
0
0
0
0
0
0
0
0
0
0
0
0
0
0
0
0
0
0
0
0
819
811
811
847
819
924
964
963
1196
1400
1420
1619
1592
1587
1476
1503
1291
1300
1204
1216
1208
1387
1488
1643
1743
1739
1748
1819
1683
1575
1528
1496
1435
1443
1483
1540
1663
1703
1823
1847
1871
1924
1812
1784
1684
1564
1532
1539
1408
1384
1351
1447
1447
1495
1324
1375
1339
1379
1356
1464
1671
1724
1684
1684
0
0
0
0
0
0
0
0
0
0
0
0
0
0
0
0
0
0
0
0
0
0
0
0
703
695
768
843
907
943
1056
1115
1300
1451
1516
1528
1480
1415
1271
1288
1187
1127
1156
1187
1351
1459
1556
1716
1719
1735
1615
1611
1459
1411
1328
1392
1376
1492
1620
1723
1795
1816
1892
1927
1835
1815
1704
1579
1431
1400
1367
1380
1388
1348
1392
1411
1467
1456
1427
1448
1368
1531
1499
1712
1883
1883
1832
1835
0
0
0
0
0
0
0
0
0
0
0
0
0
0
0
0
0
0
0
0
0
0
0
0
664
652
831
903
912
1107
1236
1347
1408
1491
1432
1368
1220
1231
1119
1096
1152
1187
1255
1400
1504
1628
1591
1679
1596
1552
1419
1299
1280
1380
1275
1391
1543
1751
1864
1816
2007
2027
1851
1799
1759
1656
1519
1483
1411
1331
1400
1403
1372
1503
1363
1595
1560
1556
1684
1672
1612
1780
1860
2044
2075
2007
1908
1908
0
0
0
0
0
0
0
0
0
0
0
0
0
0
0
0
0
0
0
0
0
0
0
0
735
724
815
1027
1071
1224
1364
1419
1384
1380
1239
1160
1103
1119
1056
1151
1240
1359
1439
1552
1636
1587
1527
1495
1399
1308
1199
1215
1196
1312
1360
1480
1596
1844
1991
1887
1975
1892
1720
1627
1516
1504
1399
1428
1380
1327
1407
1455
1391
1467
1371
1551
1623
1631
1919
1919
1851
1948
2052
2119
2156
2051
1831
1828
0
0
0
0
0
0
0
0
0
0
0
0
0
0
0
0
0
0
0
0
0
0
0
0
803
792
1031
1184
1271
1416
1423
1355
1303
1287
1103
1087
956
1159
1068
1303
1423
1508
1612
1683
1663
1628
1411
1355
1308
1191
1247
1227
1259
1499
1575
1747
1828
1996
2051
1883
1899
1792
1580
1428
1395
1391
1344
1460
1475
1455
1563
1619
1531
1471
1447
1643
1707
1843
2032
2143
2139
2244
2172
2180
2083
1932
1696
1696
0
0
0
0
0
0
0
0
0
0
0
0
0
0
0
0
0
0
0
0
0
0
0
0
891
883
1251
1356
1376
1348
1348
1268
1115
1036
996
1035
968
1155
1267
1424
1591
1671
1803
1719
1644
1508
1287
1255
1227
1232
1272
1347
1507
1603
1727
1847
1911
1963
1979
1788
1748
1567
1419
1339
1319
1379
1439
1567
1564
1563
1591
1624
1491
1564
1528
1724
1880
2039
2220
2203
2223
2255
2127
2051
2008
1755
1512
1508
0
0
0
0
0
0
0
0
0
0
0
0
0
0
0
0
0
0
0
0
0
0
0
0
1099
1095
1312
1331
1280
1235
1036
995
975
892
919
1079
1100
1300
1351
1568
1667
1684
1740
1667
1467
1239
1224
1176
1127
1311
1408
1468
1684
1748
1888
1895
1807
1736
1679
1563
1492
1324
1291
1299
1400
1459
1575
1580
1660
1628
1664
1619
1647
1748
1800
1939
2075
2168
2283
2248
2216
2151
1984
1839
1660
1464
1355
1355
0
0
0
0
0
0
0
0
0
0
0
0
0
0
0
0
0
0
0
0
0
0
0
0
1159
1156
1304
1251
1164
1079
955
963
903
840
991
1096
1287
1504
1515
1707
1735
1660
1591
1467
1352
1220
1188
1180
1196
1388
1580
1644
1839
1851
1839
1800
1607
1547
1360
1328
1315
1220
1256
1380
1468
1500
1632
1579
1567
1543
1583
1615
1756
1803
2003
2111
2176
2199
2279
2163
2091
1915
1687
1580
1448
1347
1167
1163
0
0
0
0
0
0
0
0
0
0
0
0
0
0
0
0
0
0
0
0
0
0
0
0
1099
1099
1196
1104
1003
1008
839
895
963
944
1135
1312
1455
1640
1592
1700
1607
1539
1428
1360
1256
1276
1268
1363
1388
1599
1875
1899
1875
1771
1727
1628
1451
1400
1295
1307
1387
1331
1331
1544
1568
1648
1575
1460
1447
1431
1487
1640
1807
1991
2148
2204
2267
2275
2200
2047
1920
1703
1443
1392
1384
1284
1255
1255
0
0
0
0
0
0
0
0
0
0
0
0
0
0
0
0
0
0
0
0
0
0
0
0
915
912
1024
964
947
911
772
908
1060
1072
1283
1455
1507
1655
1567
1435
1383
1263
1288
1212
1184
1359
1408
1535
1635
1799
1955
1972
1916
1711
1572
1435
1299
1295
1300
1343
1411
1467
1568
1628
1651
1548
1455
1383
1351
1344
1507
1643
1940
2111
2171
2255
2191
2168
2075
1896
1664
1468
1272
1327
1316
1299
1224
1224
0
0
0
0
0
0
0
0
0
0
0
0
0
0
0
0
0
0
0
0
0
0
0
0
716
712
815
856
844
927
951
1051
1167
1311
1432
1531
1495
1527
1404
1264
1179
1151
1147
1232
1391
1499
1631
1804
1891
1884
1964
1835
1720
1523
1431
1467
1348
1391
1412
1512
1572
1692
1703
1671
1540
1484
1328
1283
1344
1435
1624
1860
2072
2140
2220
2143
2112
1936
1867
1620
1468
1344
1308
1356
1387
1327
1332
1332
0
0
0
0
0
0
0
0
0
0
0
0
0
0
0
0
0
0
0
0
0
0
0
0
703
695
831
924
892
1095
1152
1287
1371
1452
1476
1503
1367
1296
1203
1095
1099
1087
1175
1392
1552
1687
1752
1840
1832
1795
1796
1664
1563
1447
1400
1359
1291
1471
1576
1672
1751
1748
1692
1544
1408
1380
1340
1340
1415
1572
1720
1956
1995
2076
2023
1952
1816
1672
1575
1464
1368
1315
1311
1396
1367
1428
1463
1467
0
0
0
0
0
0
0
0
0
0
0
0
0
0
0
0
0
0
0
0
0
0
0
0
779
768
916
1099
1163
1260
1375
1463
1547
1540
1420
1332
1220
1196
1083
1043
1128
1160
1307
1523
1675
1760
1803
1819
1720
1611
1552
1536
1428
1467
1391
1548
1555
1651
1783
1863
1875
1712
1660
1520
1407
1428
1391
1483
1600
1768
1947
2064
1995
1996
1851
1760
1568
1556
1444
1347
1387
1348
1447
1516
1575
1611
1675
1675
0
0
0
0
0
0
0
0
0
0
0
0
0
0
0
0
0
0
0
0
0
0
0
0
848
839
1115
1284
1340
1488
1584
1511
1520
1415
1244
1167
1071
1071
1003
1108
1168
1307
1476
1688
1760
1736
1711
1644
1536
1427
1395
1352
1359
1447
1503
1716
1728
1764
1803
1804
1711
1635
1500
1519
1540
1663
1631
1704
1848
1944
2015
2079
1968
1839
1683
1572
1436
1395
1404
1408
1423
1484
1587
1699
1815
1808
1843
1844
0
0
0
0
0
0
0
0
0
0
0
0
0
0
0
0
0
0
0
0
0
0
0
0
944
935
1160
1507
1548
1660
1588
1483
1411
1179
1139
979
987
999
1063
1159
1380
1496
1736
1759
1735
1656
1435
1399
1260
1231
1279
1300
1471
1600
1648
1724
1616
1727
1599
1568
1480
1407
1424
1604
1727
1800
1860
1883
1980
1971
1951
1767
1667
1696
1443
1464
1348
1356
1427
1368
1528
1752
1860
1971
2048
2028
1915
1916
0
0
0
0
0
0
0
0
0
0
0
0
0
0
0
0
0
0
0
0
0
0
0
0
1035
1023
1336
1563
1640
1675
1564
1327
1203
1055
980
951
959
1103
1211
1367
1564
1652
1756
1744
1615
1475
1315
1176
1212
1135
1292
1316
1540
1659
1715
1652
1584
1504
1439
1383
1331
1331
1435
1692
1791
1939
1879
1956
1931
1799
1699
1532
1487
1515
1343
1379
1339
1383
1459
1472
1636
1867
2011
2063
2104
2027
1852
1851
0
0
0
0
0
0
0
0
0
0
0
0
0
0
0
0
0
0
0
0
0
0
0
0
1112
1100
1411
1695
1612
1615
1428
1199
1064
952
1016
972
1036
1232
1403
1571
1732
1712
1767
1683
1575
1392
1247
1219
1156
1171
1367
1444
1699
1728
1699
1596
1420
1339
1311
1360
1347
1412
1648
1820
1919
1983
1979
1880
1792
1652
1567
1391
1268
1452
1299
1392
1424
1451
1627
1720
1927
2071
2172
2128
2144
1987
1819
1819
0
0
0
0
0
0
0
0
0
0
0
0
0
0
0
0
0
0
0
0
0
0
0
0
1216
1207
1507
1643
1552
1503
1340
1080
988
983
967
1095
1215
1392
1564
1684
1780
1659
1636
1503
1344
1295
1227
1268
1303
1331
1544
1655
1740
1636
1560
1460
1312
1288
1308
1412
1507
1619
1824
1900
1939
1936
1792
1727
1588
1467
1408
1251
1255
1335
1307
1392
1503
1643
1844
1900
2051
2120
2112
2092
2068
1900
1639
1636
0
0
0
0
0
0
0
0
0
0
0
0
0
0
0
0
0
0
0
0
0
0
0
0
1232
1228
1403
1423
1332
1195
1095
1027
976
936
1055
1215
1451
1620
1691
1708
1688
1587
1440
1283
1267
1227
1259
1419
1535
1519
1675
1672
1740
1559
1479
1363
1267
1355
1368
1515
1716
1812
1856
1887
1828
1732
1519
1496
1432
1343
1260
1291
1284
1315
1392
1587
1739
1904
2032
2052
1996
2068
1928
1915
1864
1704
1447
1443
0
0
0
0
0
0
0
0
0
0
0
0
0
0
0
0
0
0
0
0
0
0
0
0
1204
1196
1368
1280
1140
1084
1043
956
1043
1047
1168
1407
1635
1704
1724
1620
1580
1392
1295
1176
1259
1259
1403
1599
1676
1668
1707
1628
1531
1423
1304
1311
1271
1456
1463
1691
1800
1768
1795
1699
1596
1468
1340
1267
1259
1331
1235
1304
1324
1455
1599
1756
1863
2028
2000
1947
1831
1800
1648
1639
1619
1463
1303
1303
0
0
0
0
0
0
0
0
0
0
0
0
0
0
0
0
0
0
0
0
0
0
0
0
1187
1187
1223
1179
995
980
967
1012
1056
1243
1439
1620
1775
1751
1700
1539
1368
1308
1247
1187
1352
1471
1632
1803
1859
1715
1719
1571
1471
1384
1303
1395
1364
1648
1692
1815
1812
1723
1632
1496
1423
1355
1236
1259
1364
1411
1319
1456
1560
1672
1827
2011
2075
2059
1996
1799
1663
1611
1456
1480
1452
1412
1272
1271
0
0
0
0
0
0
0
0
0
0
0
0
0
0
0
0
0
0
0
0
0
0
0
0
1023
1016
1043
1024
899
923
995
1075
1243
1436
1599
1775
1787
1728
1552
1364
1251
1196
1188
1268
1511
1623
1820
1963
1899
1643
1591
1399
1352
1228
1320
1448
1596
1783
1808
1768
1803
1620
1456
1424
1331
1339
1320
1312
1387
1463
1519
1651
1772
1928
2027
2031
2063
1992
1803
1612
1464
1383
1396
1375
1367
1352
1224
1223
0
0
0
0
0
0
0
0
0
0
0
0
0
0
0
0
0
0
0
0
0
0
0
0
924
919
935
971
939
952
1080
1248
1480
1687
1771
1716
1584
1491
1279
1167
1195
1080
1211
1468
1556
1815
1888
1819
1755
1527
1348
1275
1264
1295
1443
1575
1667
1828
1724
1691
1531
1399
1308
1263
1263
1284
1315
1376
1507
1644
1775
1899
1947
2016
1987
1999
1879
1748
1579
1472
1403
1300
1331
1327
1304
1303
1248
1247
0
0
0
0
0
0
0
0
0
0
0
0
0
0
0
0
0
0
0
0
0
0
0
0
816
808
863
987
996
1091
1255
1448
1651
1811
1823
1740
1551
1391
1168
1144
1083
1108
1299
1591
1719
1883
1796
1771
1556
1352
1248
1203
1271
1320
1431
1692
1679
1812
1612
1515
1371
1251
1220
1224
1272
1268
1419
1531
1684
1759
1859
1952
1939
1936
1831
1808
1603
1596
1435
1367
1343
1243
1267
1295
1371
1327
1415
1416
0
0
0
0
0
0
0
0
0
0
0
0
0
0
0
0
0
0
0
0
0
0
0
0
808
796
916
1059
1172
1256
1488
1619
1747
1839
1751
1608
1391
1260
1116
1112
1211
1235
1524
1735
1855
1952
1771
1639
1456
1303
1283
1255
1395
1519
1644
1867
1759
1732
1548
1412
1351
1239
1232
1332
1348
1468
1659
1720
1891
1884
1848
1919
1791
1767
1648
1596
1508
1488
1444
1360
1339
1295
1395
1452
1576
1568
1539
1536
0
0
0
0
0
0
0
0
0
0
0
0
0
0
0
0
0
0
0
0
0
0
0
0
783
771
951
1187
1364
1536
1732
1763
1839
1767
1703
1507
1332
1199
1135
1183
1308
1395
1708
1859
1856
1892
1683
1488
1380
1303
1340
1391
1564
1732
1863
1908
1759
1635
1440
1384
1308
1320
1352
1403
1492
1664
1811
1888
1916
1827
1788
1788
1615
1548
1472
1455
1443
1404
1416
1327
1440
1431
1495
1632
1764
1816
1768
1768
0
0
0
0
0
0
0
0
0
0
0
0
0
0
0
0
0
0
0
0
0
0
0
0
751
735
975
1280
1508
1683
1755
1812
1836
1668
1476
1316
1184
1207
1148
1224
1388
1567
1779
1791
1847
1703
1460
1324
1323
1319
1467
1539
1691
1932
1903
1891
1764
1583
1516
1283
1427
1400
1444
1583
1720
1928
1947
1903
1791
1663
1579
1555
1423
1368
1352
1284
1408
1308
1460
1460
1572
1679
1768
1843
1996
1947
1924
1924
0
0
0
0
0
0
0
0
0
0
0
0
0
0
0
0
0
0
0
0
0
0
0
0
763
748
1079
1344
1588
1704
1744
1703
1659
1451
1283
1143
1071
1183
1264
1343
1519
1587
1747
1684
1611
1492
1268
1224
1259
1340
1552
1676
1792
1923
1875
1788
1523
1432
1380
1316
1512
1540
1680
1732
1787
1868
1799
1763
1599
1423
1367
1343
1215
1267
1260
1231
1396
1387
1532
1679
1748
1831
1812
1911
1971
1907
1843
1843
0
0
0
0
0
0
0
0
0
0
0
0
0
0
0
0
0
0
0
0
0
0
0
0
840
827
1123
1415
1560
1639
1575
1475
1328
1279
1103
1028
987
1163
1211
1448
1527
1640
1671
1460
1356
1296
1148
1179
1259
1388
1600
1756
1808
1804
1748
1599
1468
1391
1416
1367
1668
1664
1732
1795
1804
1759
1643
1472
1411
1219
1243
1199
1156
1147
1232
1279
1399
1487
1655
1719
1832
1951
1852
1764
1804
1720
1600
1599
0
0
0
0
0
0
0
0
0
0
0
0
0
0
0
0
0
0
0
0
0
0
0
0
715
699
959
1187
1192
1271
1188
1051
940
831
768
784
847
967
1103
1247
1291
1311
1291
1116
1020
1019
911
968
1092
1288
1463
1547
1544
1479
1356
1264
1092
1107
1268
1275
1475
1484
1512
1583
1512
1403
1239
1152
1080
983
1003
1039
959
991
1008
1152
1383
1383
1540
1540
1611
1607
1468
1432
1459
1315
1187
1183
0
0
0
0
0
0
0
0
0
0
0
0
0
0
0
0
0
0
0
0
0
0
0
0